{"title":"The Iceman 2012 720p Bluray DTS x264 SilverTorrentHD","uid":8809520,"size":3018431996,"categoryP":"video","categoryS":"hd___movies","magnet":"?xt=urn:btih:5d8e26751e79ae58e3f7875f925b7d1b06fb0614&amp;dn=The+Iceman+2012+720p+Bluray+DTS+x264+SilverTorrentHD&amp;tr=udp%3A%2F%2Ftracker.openbittorrent.com%3A80&amp;tr=udp%3A%2F%2Fopen.demonii.com%3A1337&amp;tr=udp%3A%2F%2Ftracker.coppersurfer.tk%3A6969&amp;tr=udp%3A%2F%2Fexodus.desync.com%3A6969","seeders":1,"leechers":0,"uploader":"AliBaloch","files":-1,"time":1376423488,"description":"[img]http://i874.photobucket.com/albums/ab306/worldwide7477/Custom%20Covers/The-Iceman-2012-Custom-Movie-Cover-Worldwide7477_zps5950f65e.png[/img]\n\nComplete name                            : C:UsersUserVideosThe Iceman 2012 720p Bluray DTS x264 SilverTorrentHDThe Iceman 2012 720p Bluray DTS x264 SilverTorrentHD.mkv\nFormat                                   : Matroska\nFormat version                           : Version 4 / Version 2\nFile size                                : 2.77 GiB\nDuration                                 : 1h 45mn\nOverall bit rate                         : 3 756 Kbps\nMovie name                               : The Iceman 2012 Encoder Worldwide7477\n\nVideo\nID                                       : 1\nFormat                                   : AVC\nFormat/Info                              : Advanced Video Codec\nFormat settings, CABAC                   : Yes\nFormat settings, ReFrames                : 4 frames\nCodec ID                                 : V_MPEG4/ISO/AVC\nDuration                                 : 1h 45mn\nBit rate                                 : 2 999 Kbps\nWidth                                    : 1 280 pixels\nHeight                                   : 720 pixels\nDisplay aspect ratio                     : 16:9\nFrame rate mode                          : Constant\nFrame rate                               : 23.976 fps\nColor space                              : YUV\nChroma subsampling                       : 4:2:0\nBit depth                                : 8 bits\nBits/(Pixel*Frame)                       : 0.136\nStream size                              : 2.16 GiB (78%)\nTitle                                    : The Iceman 2012 720p Bluray DTS x264 SilverTorrentHD\nLanguage                                 : English\nDefault                                  : Yes\nForced                                   : No\n\nAudio\nFormat                                   : DTS\nFormat/Info                              : Digital Theater Systems\nFormat settings, Endianness              : Big\nCodec ID                                 : A_DTS\nDuration                                 : 1h 45mn\nBit rate mode                            : Constant\nBit rate                                 : 755 Kbps\nChannel(s)                               : 6 channels\nChannel positions                        : Front: L C R, Side: L R, LFE\nSampling rate                            : 48.0 KHz\nBit depth                                : 24 bits\nStream size                              : 569 MiB (20%)\nTitle                                    : Worldwide7477 (DTS)\nLanguage                                 : English\nDefault                                  : Yes\nForced                                   : No\n\nText #1\nID                                       : 3\nFormat                                   : UTF-8\nCodec ID                                 : S_TEXT/UTF8\nCodec ID/Info                            : UTF-8 Plain Text\nTitle                                    : Worldwide7477\nLanguage                                 : English\nDefault                                  : Yes\nForced                                   : No\n\nText #2\nID                                       : 4\nFormat                                   : UTF-8\nCodec ID                                 : S_TEXT/UTF8\nCodec ID/Info                            : UTF-8 Plain Text\nTitle                                    : Worldwide7477\nLanguage                                 : Hindi\nDefault                                  : No\nForced                                   : No\n\nText #3\nID                                       : 5\nFormat                                   : UTF-8\nCodec ID                                 : S_TEXT/UTF8\nCodec ID/Info                            : UTF-8 Plain Text\nTitle                                    : Worldwide7477\nLanguage                                 : Spanish\nDefault                                  : No\nForced                                   : No\n\nText #4\nID                                       : 6\nFormat                                   : UTF-8\nCodec ID                                 : S_TEXT/UTF8\nCodec ID/Info                            : UTF-8 Plain Text\nTitle                                    : Worldwide7477\nLanguage                                 : Tamil\nDefault                                  : No\nForced                                   : No\n\nText #5\nID                                       : 7\nFormat                                   : UTF-8\nCodec ID                                 : S_TEXT/UTF8\nCodec ID/Info                            : UTF-8 Plain Text\nTitle                                    : Worldwide7477\nLanguage                                 : Telugu\nDefault                                  : No\nForced                                   : No\n &lt;a href=&quot;\nhttp://img43.imageshack.us/img43/1272/ntj6.png&quot; rel=&quot;nofollow&quot; target=&quot;_NEW&quot;&gt;\nhttp://img43.imageshack.us/img43/1272/ntj6.png&lt;/a&gt;\n &lt;a href=&quot;\nhttp://img11.imageshack.us/img11/8591/yglg.png&quot; rel=&quot;nofollow&quot; target=&quot;_NEW&quot;&gt;\nhttp://img11.imageshack.us/img11/8591/yglg.png&lt;/a&gt;\n &lt;a href=&quot;\nhttp://img689.imageshack.us/img689/9749/t416.png&quot; rel=&quot;nofollow&quot; target=&quot;_NEW&quot;&gt;\nhttp://img689.imageshack.us/img689/9749/t416.png&lt;/a&gt;\n &lt;a href=&quot;\nhttp://img854.imageshack.us/img854/2879/2wcb.png&quot; rel=&quot;nofollow&quot; target=&quot;_NEW&quot;&gt;\nhttp://img854.imageshack.us/img854/2879/2wcb.png&lt;/a&gt;\n &lt;a href=&quot;\nhttp://img20.imageshack.us/img20/9724/jqzx.png&quot; rel=&quot;nofollow&quot; target=&quot;_NEW&quot;&gt;\nhttp://img20.imageshack.us/img20/9724/jqzx.png&lt;/a&gt;\n","torrent":{"xt":"urn:btih:5d8e26751e79ae58e3f7875f925b7d1b06fb0614","amp;dn":"The+Iceman+2012+720p+Bluray+DTS+x264+SilverTorrentHD","amp;tr":["udp%3A%2F%2Ftracker.openbittorrent.com%3A80","udp%3A%2F%2Fopen.demonii.com%3A1337","udp%3A%2F%2Ftracker.coppersurfer.tk%3A6969","udp%3A%2F%2Fexodus.desync.com%3A6969"],"infoHash":"5d8e26751e79ae58e3f7875f925b7d1b06fb0614","infoHashBuffer":{"type":"Buffer","data":[93,142,38,117,30,121,174,88,227,247,135,95,146,91,125,27,6,251,6,20]},"announce":[],"urlList":[]}}